<?xml version="1.0" standalone="no"?>
<!DOCTYPE svg PUBLIC "-//W3C//DTD SVG 20010904//EN"
 "http://www.w3.org/TR/2001/REC-SVG-20010904/DTD/svg10.dtd">
<svg version="1.0" xmlns="http://www.w3.org/2000/svg"
 width="1024.000000pt" height="1024.000000pt" viewBox="0 0 1024.000000 1024.000000"
 preserveAspectRatio="xMidYMid meet">

<g transform="translate(0.000000,1024.000000) scale(0.100000,-0.100000)"
fill="#000000" stroke="none">
<path d="M2365 9303 c-493 -27 -858 -192 -1163 -528 -224 -246 -341 -524 -398
-946 -25 -183 -31 -897 -29 -3209 2 -2158 1 -2121 61 -2401 76 -360 198 -595
433 -830 141 -141 265 -230 426 -305 216 -101 397 -143 706 -164 237 -16 5459
-8 5579 8 260 37 416 78 577 153 286 132 524 344 680 608 138 233 216 524 242
902 12 178 13 4945 1 5094 -44 539 -175 859 -475 1161 -218 219 -465 354 -760
413 -229 46 -135 44 -3050 46 -1523 1 -2797 0 -2830 -2z m3016 -674 c168 -33
349 -115 492 -223 90 -67 238 -220 291 -299 85 -129 148 -302 182 -497 22
-128 15 -362 -14 -472 -59 -222 -201 -463 -577 -983 -92 -126 -249 -354 -350
-505 -101 -151 -193 -284 -205 -295 -27 -24 -108 -28 -134 -6 -10 8 -63 80
-119 160 -56 80 -219 310 -362 511 -144 201 -295 415 -337 475 -160 235 -283
472 -324 631 -23 87 -27 119 -27 269 -1 140 3 188 21 271 60 278 159 463 343
641 296 285 708 404 1120 322z m-705 -3064 c14 -14 24 -31 21 -38 -2 -7 -57
-35 -123 -64 -230 -99 -261 -114 -297 -144 -42 -34 -49 -75 -19 -102 33 -30
135 -65 313 -108 650 -156 891 -222 1077 -295 217 -86 331 -153 420 -248 159
-171 87 -323 -274 -579 -82 -59 -175 -130 -206 -157 l-56 -50 -1043 2 -1043 3
314 104 c681 224 962 337 1103 442 98 74 114 137 48 199 -84 80 -275 153 -695
265 -424 113 -560 172 -637 278 -39 54 -41 125 -4 179 80 118 378 231 805 307
216 38 263 39 296 6z m102 -2275 c44 -27 75 -96 66 -146 -18 -98 -135 -153
-224 -105 -104 55 -108 199 -8 253 46 24 124 23 166 -2z m-403 -700 l0 -695
-137 -3 -138 -3 0 701 0 701 138 -3 137 -3 0 -695z m1605 0 l0 -701 -127 3
-128 3 -3 62 -3 61 -45 -48 c-138 -148 -401 -144 -554 9 -112 112 -164 340
-127 554 46 262 208 399 458 385 98 -6 160 -31 222 -90 22 -21 41 -38 41 -38
1 0 0 112 -2 250 l-3 250 136 0 135 0 0 -700z m1000 684 c205 -48 357 -187
405 -370 8 -31 12 -61 9 -65 -3 -5 -70 -9 -148 -9 -153 0 -158 1 -170 53 -10
42 -70 102 -129 128 -43 19 -68 23 -152 22 -131 0 -198 -25 -271 -98 -62 -62
-81 -113 -94 -260 -18 -204 15 -362 93 -443 76 -80 229 -125 355 -104 149 25
228 98 239 221 l6 60 -154 3 -154 3 -3 108 -3 107 306 0 c168 0 305 -3 306 -7
0 -5 2 -21 5 -38 8 -60 -16 -257 -42 -334 -48 -146 -149 -262 -280 -322 -109
-50 -177 -63 -324 -63 -119 0 -144 3 -216 27 -295 98 -459 365 -441 722 17
342 186 583 459 655 94 24 303 27 398 4z m-4512 -10 c95 -19 179 -63 231 -120
50 -53 100 -150 108 -209 l6 -45 -135 0 -135 0 -34 58 c-47 79 -111 112 -218
112 -130 -1 -201 -49 -201 -139 0 -98 44 -130 285 -206 239 -75 336 -130 404
-229 129 -187 39 -463 -184 -567 -170 -80 -423 -75 -601 13 -119 58 -221 190
-232 301 l-5 47 137 0 136 0 24 -47 c50 -99 118 -135 257 -136 103 0 169 26
207 83 34 50 27 128 -14 171 -40 42 -74 58 -262 123 -283 97 -363 148 -417
267 -25 56 -27 70 -23 158 3 80 8 106 31 153 50 102 164 185 291 213 85 19
252 18 344 -1z m1132 -361 c177 -49 305 -190 345 -380 65 -306 -96 -581 -377
-648 -281 -66 -554 99 -619 375 -19 84 -14 242 10 321 27 84 83 171 154 235
118 108 309 146 487 97z m4609 -4 c300 -93 438 -469 284 -773 -31 -60 -123
-159 -179 -192 -150 -88 -358 -95 -514 -18 -121 61 -228 200 -261 339 -16 68
-16 208 0 275 46 192 193 342 371 379 114 23 200 20 299 -10z m-3374 -509 l0
-495 -134 -3 c-101 -2 -136 1 -143 10 -9 16 -11 972 -1 982 4 3 68 5 142 4
l136 -3 0 -495z"/>
<path d="M4966 7984 c-299 -72 -477 -372 -411 -689 19 -89 81 -215 139 -281
125 -142 331 -213 522 -180 132 23 220 69 320 170 135 135 183 263 171 461
-15 251 -192 462 -438 520 -79 18 -224 18 -303 -1z"/>
<path d="M5380 2661 c-78 -41 -127 -167 -117 -296 15 -175 85 -259 217 -259
121 1 191 66 220 209 31 148 -24 300 -124 346 -55 25 -150 25 -196 0z"/>
<path d="M3344 2671 c-85 -39 -119 -133 -112 -310 5 -121 18 -166 58 -208 48
-52 140 -74 218 -54 109 30 157 131 150 320 -3 96 -6 114 -33 166 -23 46 -40
64 -74 82 -56 29 -147 31 -207 4z"/>
<path d="M7928 2670 c-20 -11 -45 -32 -55 -47 -41 -59 -48 -94 -48 -238 0
-125 2 -144 22 -181 45 -84 122 -122 222 -110 93 11 142 57 176 163 25 76 17
239 -13 308 -44 96 -91 125 -199 125 -47 -1 -79 -7 -105 -20z"/>
</g>
</svg>
